<?xml version="1.0" encoding="iso-8859-1"?>
<!-- Generator: Adobe Illustrator 19.0.0, SVG Export Plug-In . SVG Version: 6.00 Build 0)  -->
<svg version="1.1" id="Layer_1" xmlns="http://www.w3.org/2000/svg" xmlns:xlink="http://www.w3.org/1999/xlink" x="0px" y="0px"
	 viewBox="0 0 512 512" style="enable-background:new 0 0 512 512;" xml:space="preserve">
<g>
	<g>
		<path d="M437.021,74.979C388.669,26.628,324.381,0,256,0S123.33,26.627,74.979,74.979C26.628,123.331,0,187.619,0,256
			s26.627,132.67,74.979,181.021S187.619,512,256,512s132.67-26.627,181.021-74.979S512,324.381,512,256
			S485.373,123.33,437.021,74.979z M425.824,425.824c-45.361,45.36-105.672,70.341-169.824,70.341s-124.462-24.981-169.824-70.341
			C40.816,380.462,15.835,320.152,15.835,256S40.816,131.538,86.176,86.176C131.538,40.816,191.848,15.835,256,15.835
			s124.462,24.981,169.824,70.341c45.36,45.361,70.341,105.672,70.341,169.824S471.184,380.462,425.824,425.824z"/>
	</g>
</g>
<g>
	<g>
		<path d="M327.258,184.742V95.01H184.742v89.732H95.01v142.516h89.732v89.732h142.516v-89.732h89.732V184.742H327.258z
			 M401.155,311.423h-89.732v89.732H200.577v-89.732h-89.732V200.577h89.732v-89.732h110.845v89.732h89.732V311.423z"/>
	</g>
</g>
<g>
	<g>
		<rect x="245.443" y="42.227" width="21.113" height="15.835"/>
	</g>
</g>
<g>
	<g>
		<rect x="245.443" y="453.938" width="21.113" height="15.835"/>
	</g>
</g>
<g>
	<g>
		<rect x="39.588" y="248.082" width="21.113" height="15.835"/>
	</g>
</g>
<g>
	<g>
		<rect x="451.299" y="248.082" width="21.113" height="15.835"/>
	</g>
</g>
<g>
</g>
<g>
</g>
<g>
</g>
<g>
</g>
<g>
</g>
<g>
</g>
<g>
</g>
<g>
</g>
<g>
</g>
<g>
</g>
<g>
</g>
<g>
</g>
<g>
</g>
<g>
</g>
<g>
</g>
</svg>
